/videos/c2bac002-eabe-675b-e7b9-524578e555c2/hls1/main/0.ts

{"Protocol":0,"Id":"c2bac002eabe675be7b9524578e555c2","Path":"/Volumes/Merged/Adult/Movies/I, Robot (2004)/I,.Robot (2004) Bluray-1080p x265 [UK\u002BEN] [DUB-UKR] 2.0.mkv","EncoderPath":null,"EncoderProtocol":null,"Type":0,"Container":"mkv,webm","Size":573066,"Name":"I,.Robot (2004) Bluray-1080p x265 [UK\u002BEN] [DUB-UKR] 2.0","IsRemote":false,"ETag":"eadc812bd5f9b2684b384c7a88359b33","RunTimeTicks":133460000,"ReadAtNativeFramerate":false,"IgnoreDts":false,"IgnoreIndex":false,"GenPtsInput":false,"SupportsTranscoding":true,"SupportsDirectStream":true,"SupportsDirectPlay":true,"IsInfiniteStream":false,"RequiresOpening":false,"OpenToken":null,"RequiresClosing":false,"LiveStreamId":null,"BufferMs":null,"RequiresLooping":false,"SupportsProbing":true,"VideoType":0,"IsoType":null,"Video3DFormat":null,"MediaStreams":[{"Codec":"h264","CodecTag":null,"Language":null,"ColorRange":null,"ColorSpace":null,"ColorTransfer":null,"ColorPrimaries":null,"DvVersionMajor":null,"DvVersionMinor":null,"DvProfile":null,"DvLevel":null,"RpuPresentFlag":null,"ElPresentFlag":null,"BlPresentFlag":null,"DvBlSignalCompatibilityId":null,"Comment":null,"TimeBase":"1/1000","CodecTimeBase":null,"Title":null,"VideoRange":"SDR","VideoRangeType":"SDR","VideoDoViTitle":null,"LocalizedUndefined":null,"LocalizedDefault":null,"LocalizedForced":null,"LocalizedExternal":null,"DisplayTitle":"360p H264 SDR","NalLengthSize":"4","IsInterlaced":false,"IsAVC":true,"ChannelLayout":null,"BitRate":343513,"BitDepth":8,"RefFrames":1,"PacketLength":null,"Channels":null,"SampleRate":null,"IsDefault":true,"IsForced":false,"Height":360,"Width":640,"AverageFrameRate":29.97003,"RealFrameRate":29.97003,"Profile":"High","Type":1,"AspectRatio":"16:9","Index":0,"Score":null,"IsExternal":false,"DeliveryMethod":null,"DeliveryUrl":null,"IsExternalUrl":null,"IsTextSubtitleStream":false,"SupportsExternalStream":false,"Path":null,"PixelFormat":"yuv420p","Level":30,"IsAnamorphic":null}],"MediaAttachments":[],"Formats":[],"Bitrate":343513,"Timestamp":null,"RequiredHttpHeaders":{},"TranscodingUrl":null,"TranscodingSubProtocol":null,"TranscodingContainer":null,"AnalyzeDurationMs":null,"DefaultAudioStreamIndex":null,"DefaultSubtitleStreamIndex":null}

/usr/lib/jellyfin-ffmpeg/ffmpeg -analyzeduration 200M -fflags +genpts -f matroska,webm  -i file:"/Volumes/Merged/Adult/Movies/I, Robot (2004)/I,.Robot (2004) Bluray-1080p x265 [UK+EN] [DUB-UKR] 2.0.mkv" -map_metadata -1 -map_chapters -1 -threads 0 -map 0:0 -map -0:a -map -0:s -codec:v:0 copy -bsf:v h264_mp4toannexb -start_at_zero  -copyts -avoid_negative_ts disabled -max_muxing_queue_size 2048 -f hls -max_delay 5000000 -hls_time 6 -hls_segment_type mpegts -start_number 0 -hls_segment_filename "/config/data/transcodes/83c1b26a899ba06a683212300512d9c9%d.ts" -hls_playlist_type vod -hls_list_size 0 -y "/config/data/transcodes/83c1b26a899ba06a683212300512d9c9.m3u8"


ffmpeg version 5.1.3-Jellyfin Copyright (c) 2000-2022 the FFmpeg developers
  built with gcc 11 (Ubuntu 11.3.0-1ubuntu1~22.04.1)
  configuration: --prefix=/usr/lib/jellyfin-ffmpeg --target-os=linux --extra-libs=-lfftw3f --extra-version=Jellyfin --disable-doc --disable-ffplay --disable-ptx-compression --disable-static --disable-libxcb --disable-sdl2 --disable-xlib --enable-lto --enable-gpl --enable-version3 --enable-shared --enable-gmp --enable-gnutls --enable-chromaprint --enable-libdrm --enable-libass --enable-libfreetype --enable-libfribidi --enable-libfontconfig --enable-libbluray --enable-libmp3lame --enable-libopus --enable-libtheora --enable-libvorbis --enable-libopenmpt --enable-libdav1d --enable-libwebp --enable-libvpx --enable-libx264 --enable-libx265 --enable-libzvbi --enable-libzimg --enable-libfdk-aac --toolchain=hardened --enable-cross-compile --arch=arm64 --cross-prefix=/usr/bin/aarch64-linux-gnu-
  libavutil      57. 28.100 / 57. 28.100
  libavcodec     59. 37.100 / 59. 37.100
  libavformat    59. 27.100 / 59. 27.100
  libavdevice    59.  7.100 / 59.  7.100
  libavfilter     8. 44.100 /  8. 44.100
  libswscale      6.  7.100 /  6.  7.100
  libswresample   4.  7.100 /  4.  7.100
  libpostproc    56.  6.100 / 56.  6.100
Input #0, matroska,webm, from 'file:/Volumes/Merged/Adult/Movies/I, Robot (2004)/I,.Robot (2004) Bluray-1080p x265 [UK+EN] [DUB-UKR] 2.0.mkv':
  Metadata:
    COMPATIBLE_BRANDS: mp42mp41isomavc1
    MAJOR_BRAND     : mp42
    MINOR_VERSION   : 0
    ENCODER         : Lavf57.83.100
  Duration: 00:00:13.35, start: 0.000000, bitrate: 343 kb/s
  Stream #0:0: Video: h264 (High), yuv420p(progressive), 640x360, 29.97 fps, 29.97 tbr, 1k tbn (default)
    Metadata:
      HANDLER_NAME    : L-SMASH Video Handler
      ENCODER         : Lavc57.107.100 libx264
      DURATION        : 00:00:13.346000000
Output #0, hls, to '/config/data/transcodes/83c1b26a899ba06a683212300512d9c9.m3u8':
  Metadata:
    encoder         : Lavf59.27.100
  Stream #0:0: Video: h264 (High), yuv420p(progressive), 640x360, q=2-31, 29.97 fps, 29.97 tbr, 90k tbn (default)
Stream mapping:
  Stream #0:0 -> #0:0 (copy)
Press [q] to stop, [?] for help
frame=    1 fps=0.0 q=-1.0 size=N/A time=-00:00:00.06 bitrate=N/A speed=N/A    
[hls @ 0xaaaae8cd1790] Opening '/config/data/transcodes/83c1b26a899ba06a683212300512d9c90.ts' for writing
[hls @ 0xaaaae8cd1790] Opening '/config/data/transcodes/83c1b26a899ba06a683212300512d9c91.ts' for writing
frame=  400 fps=0.0 q=-1.0 Lsize=N/A time=00:00:00.00 bitrate=N/A speed=   0x    
video:556kB audio:0kB subtitle:0kB other streams:0kB global headers:0kB muxing overhead: unknown